<svg xmlns="http://www.w3.org/2000/svg" id="eco-mode" width="32" height="32" version="1.1" viewBox="0 0 32 32">
  <g id="layer1" transform="translate(-2352)">
    <g id="g871" style="display:inline" transform="translate(2139.056 247.072)">
      <path id="path917" d="m 242.44411,-231.07158 a 13.499997,13.499997 0 0 1 -13.5,13.5 13.499997,13.499997 0 0 1 -13.5,-13.5 13.499997,13.499997 0 0 1 13.5,-13.5 13.499997,13.499997 0 0 1 13.5,13.5 z" style="fill:#bdcdd4;fill-opacity:1;stroke-linecap:round;stroke-linejoin:round;stroke-dashoffset:.1"></path>
      <path id="path624" d="m 236.44606,-238.57158 c -0.0434,-8e-5 -0.0878,0.006 -0.13086,0.0176 -0.0849,0.0225 -0.16236,0.067 -0.22461,0.12891 l -11.96484,11.96484 c -0.95412,1.28616 -1.45017,1.87346 -2.95898,1.97266 -0.26245,0.17505 -0.29921,0.54642 -0.0762,0.76953 l 6.01563,6.01562 a 13.499997,13.499997 0 0 0 1.83789,0.13086 13.499997,13.499997 0 0 0 13.5,-13.49999 13.499997,13.499997 0 0 0 -0.12891,-1.83594 l -5.51757,-5.51758 c -0.0947,-0.0944 -0.22126,-0.14623 -0.35157,-0.14648 z" style="color:#000;fill:#8ca6b0;fill-opacity:.996078;stroke-linecap:round;stroke-linejoin:round;-inkscape-stroke:none"></path>
      <path id="path527" d="m 236.39421,-238.56882 a 0.49748265,0.49511035 0 0 0 -0.34976,0.20112 c -1.2521,1.71879 -2.95715,2.19472 -4.86553,2.38829 -1.90839,0.19357 -3.96198,0.0435 -5.72828,0.62076 -1.13114,0.36971 -1.91169,1.01727 -2.36476,1.81394 -0.45306,0.79669 -0.58592,1.71184 -0.56544,2.63583 0.0373,1.68115 0.5744,3.44046 0.88411,4.76885 -3.7e-4,5.9e-4 3.8e-4,0.001 0,0.002 -0.10615,0.1683 -0.26333,0.39474 -0.4644,0.62656 -0.40214,0.46364 -0.95595,0.89537 -1.54671,0.95145 a 0.4974349,0.49506282 0 0 0 -0.44691,0.54147 0.4974349,0.49506282 0 0 0 0.54212,0.44479 c 0.98433,-0.0934 1.71442,-0.72602 2.20348,-1.28987 0.14306,-0.16494 0.25195,-0.3093 0.34588,-0.44285 2.16213,0.74819 4.08055,0.75575 5.71272,0.21659 1.69042,-0.55841 3.05795,-1.6876 4.11939,-3.09608 2.12287,-2.81702 3.07399,-6.74574 3.07399,-9.89165 a 0.49748265,0.49511035 0 0 0 -0.34393,-0.46993 0.49748265,0.49511035 0 0 0 -0.20597,-0.0213 z" style="color:#000;fill:#00a605;fill-opacity:1;stroke-width:.999995;stroke-linecap:round;stroke-linejoin:round;-inkscape-stroke:none"></path>
      <path id="path1-6" d="m 227.62523,-234.57129 c -0.0771,0.002 -0.15204,0.007 -0.22657,0.0137 -0.27508,0.0248 -0.47797,0.26789 -0.45312,0.54297 0.0248,0.27508 0.26789,0.47797 0.54297,0.45312 0.0679,-0.006 0.14006,-0.01 0.21484,-0.01 0.27614,0 0.5,-0.22385 0.5,-0.5 0,-0.27614 -0.22386,-0.5 -0.5,-0.5 -0.0261,0 -0.0524,-5.6e-4 -0.0781,0 z m -1.71094,0.51367 c -0.11301,0.007 -0.22042,0.0514 -0.30468,0.12696 -0.7791,0.70122 -1.13282,1.69336 -1.13282,1.69336 -0.0979,0.25779 0.0315,0.54615 0.28907,0.64453 0.2578,0.0978 0.54615,-0.0315 0.64453,-0.28907 0,0 0.33944,-0.83164 0.86719,-1.30664 0.20455,-0.18464 0.22114,-0.49998 0.0371,-0.70507 -0.10166,-0.1126 -0.24895,-0.17295 -0.40039,-0.16407 z" style="color:#000;fill:#fff;stroke-width:1;stroke-linecap:round;stroke-linejoin:round;stroke-dashoffset:.1;-inkscape-stroke:none"></path>
      <path id="path861" d="m 236.7195,-238.47978 a 0.49748265,0.49511035 0 0 1 0.0215,0.0996 c 0,3.14591 -0.95135,7.07556 -3.07422,9.89258 -1.06144,1.40848 -2.42872,2.5373 -4.11913,3.0957 -1.63219,0.53917 -3.55076,0.5314 -5.71289,-0.21679 -0.0939,0.13355 -0.20264,0.27842 -0.3457,0.44336 -0.48906,0.56385 -1.2188,1.19563 -2.20313,1.28906 a 0.4974349,0.49506282 0 0 1 -0.32226,-0.0977 0.4974349,0.49506282 0 0 0 0.52539,0.40039 c 0.98432,-0.0934 1.71406,-0.72716 2.20312,-1.29102 0.14306,-0.16493 0.25177,-0.30785 0.3457,-0.4414 2.16213,0.74819 4.08072,0.75596 5.71289,0.21679 1.69042,-0.5584 3.05771,-1.68918 4.11914,-3.09765 2.12287,-2.81702 3.07422,-6.74472 3.07422,-9.89063 a 0.49748265,0.49511035 0 0 0 -0.22462,-0.40234 z" style="color:#000;fill:#007500;fill-opacity:1;stroke-width:.999995;stroke-linecap:round;stroke-linejoin:round;-inkscape-stroke:none"></path>
    </g>
  </g>
</svg>
