<svg xmlns="http://www.w3.org/2000/svg" id="eco-mode" width="32" height="32" version="1.1" viewBox="0 0 32 32">
  <g id="layer1" transform="translate(-1680)">
    <g id="g511" style="display:inline" transform="translate(1680)">
      <path id="path446" d="M 29.499998,15.999999 A 13.499997,13.499997 0 0 1 16,29.499996 13.499997,13.499997 0 0 1 2.5000024,15.999999 13.499997,13.499997 0 0 1 16,2.5000018 13.499997,13.499997 0 0 1 29.499998,15.999999 Z" style="fill:#bdcdd4;fill-opacity:1;stroke-linecap:round;stroke-linejoin:round;stroke-dashoffset:.1"></path>
      <path id="path484" d="M 23.499996,8.4999998 C 20.800698,12.258391 15.94195,10.647655 12.702792,11.721479 8.5736602,13.090341 10.5,17.999999 11.08321,20.848999 v 0 c 8.654514,3.227724 12.416786,-6.199101 12.416786,-12.3489992 z" style="fill:#9ade00;fill-opacity:1;stroke:none;stroke-width:.999995;stroke-linecap:round;stroke-linejoin:round;stroke-opacity:.988235"></path>
      <path id="path497" d="m 15.88317,2.0005168 c -3.570902,0.03121 -7.1074531,1.42386 -9.7832031,4.09961 -4.756888,4.7568882 -5.45724403,12.2318542 -1.666015,17.7890622 0.1551492,0.228955 0.4666982,0.288465 0.695312,0.132813 0.2282877,-0.155774 0.2869005,-0.467208 0.13086,-0.695313 C 1.7362159,18.161322 2.3855209,11.228635 6.8069989,6.8071578 11.228476,2.3856808 18.161163,1.7363758 23.32653,5.2602828 c 0.228105,0.15604 0.539538,0.097428 0.695312,-0.130859 0.155652,-0.2286137 0.09614,-0.5401634 -0.132812,-0.695313 -2.431279,-1.658662 -5.228491,-2.457871 -8.00586,-2.433594 z m 9.328126,3.605469 c -0.147827,-0.00798 -0.291593,0.049951 -0.392579,0.158203 -0.18919,0.202975 -0.176919,0.5211823 0.02734,0.708985 0.117997,0.109533 0.233812,0.220141 0.347656,0.333984 0.109861,0.10986 0.218361,0.222215 0.324219,0.335938 0.187965,0.2011111 0.503134,0.2124604 0.705078,0.02539 0.202399,-0.1881632 0.213771,-0.5048347 0.02539,-0.707031 -0.113992,-0.122474 -0.229345,-0.243019 -0.347656,-0.361328 -0.1226,-0.1226 -0.247932,-0.243368 -0.375,-0.361328 -0.08599,-0.079788 -0.197301,-0.1268 -0.314453,-0.132813 z m 1.894531,2.271485 c -0.08819,0.00638 -0.173104,0.036038 -0.246094,0.08594 -0.227621,0.1563965 -0.285337,0.467716 -0.128906,0.695313 3.534504,5.1660652 2.889004,12.1090412 -1.53711,16.5351562 -4.426114,4.426114 -11.36909,5.071614 -16.5351561,1.53711 -0.2275968,-0.156431 -0.5389156,-0.09871 -0.695312,0.128906 -0.1560407,0.228105 -0.097428,0.539539 0.130859,0.695313 C 13.65205,31.357825 21.138889,30.66277 25.900749,25.900912 30.662607,21.139051 31.357662,13.652211 27.555046,8.0942698 27.454617,7.9471417 27.283495,7.8645571 27.105827,7.8774738 Z m -3.660157,0.125 c -0.141291,0.015891 -0.269137,0.091178 -0.351562,0.207031 -1.246987,1.736253 -2.942232,2.2147212 -4.841797,2.4101562 -1.899564,0.195433 -3.945699,0.04305 -5.707031,0.626953 -1.128042,0.37396 -1.90442,1.029507 -2.355469,1.833984 -0.4510481,0.804478 -0.5828861,1.727308 -0.5625001,2.660156 0.03912,1.789951 0.6311291,3.669864 0.9277351,5.033204 -0.507334,0.88458 -1.2649841,1.226562 -2.0546881,1.226562 -0.2761424,0 -0.5,0.223858 -0.5,0.5 0,0.276142 0.2238576,0.5 0.5,0.5 1.044831,0 2.1172271,-0.499947 2.8046881,-1.541016 2.087086,0.699318 3.943866,0.691367 5.529296,0.160157 1.685337,-0.564686 3.046382,-1.706081 4.103516,-3.128907 2.114268,-2.845649 3.0625,-6.813331 3.0625,-9.9902342 1.31e-4,-0.2175705 -0.140435,-0.4102565 -0.347656,-0.476562 -0.06674,-0.021603 -0.137279,-0.028921 -0.207032,-0.02148 z m -0.617187,1.669921 c -0.199612,2.7668632 -0.996685,5.9371032 -2.693359,8.2207032 -0.965245,1.299148 -2.164975,2.292067 -3.619141,2.779297 -1.340694,0.44921 -2.932004,0.438022 -4.798828,-0.169922 0.804428,-2.352965 1.895968,-2.956422 3.148437,-3.457031 1.334908,-0.53356 2.977754,-0.888315 4.06836,-2.796875 0.136715,-0.239503 0.0537,-0.544477 -0.185547,-0.681641 -0.239503,-0.136715 -0.544477,-0.0537 -0.681641,0.185547 -0.90939,1.591433 -2.123836,1.786301 -3.572265,2.365235 -1.159727,0.46354 -2.389166,1.215927 -3.28711,3.029296 -0.274717,-1.121694 -0.557926,-2.324696 -0.582031,-3.427734 -0.01796,-0.821795 0.106645,-1.560286 0.4375,-2.150391 0.330855,-0.590103 0.860355,-1.062578 1.796875,-1.373047 1.47782,-0.489917 3.481678,-0.372827 5.496094,-0.580078 1.590854,-0.163672 3.14032,-0.784406 4.472656,-1.9433592 z M 6.0804359,24.686065 c -0.1178335,0.0056 -0.2299067,0.0526 -0.316406,0.132812 -0.2023993,0.188163 -0.2137712,0.504836 -0.02539,0.707032 0.117961,0.127067 0.238729,0.2524 0.361328,0.375 0.118311,0.11831 0.238851,0.233665 0.361328,0.347656 0.2021964,0.188381 0.5188687,0.177009 0.707032,-0.02539 C 7.3553983,26.021231 7.344049,25.706062 7.1429379,25.518097 7.0291849,25.412269 6.9168609,25.303738 6.8070009,25.193878 6.6931569,25.080034 6.5825379,24.96423 6.4730159,24.846222 6.3723896,24.73725 6.2285748,24.678579 6.0804379,24.686066 Z" style="color:#000;fill:#0e232e;stroke-width:1;stroke-linecap:round;stroke-linejoin:round;stroke-dashoffset:.1;-inkscape-stroke:none"></path>
      <path id="path511" d="m 14.681117,12.500287 c -0.07708,0.0017 -0.152038,0.0068 -0.226563,0.01367 -0.275083,0.02477 -0.477974,0.267893 -0.453125,0.542969 0.02477,0.275083 0.267893,0.477974 0.542969,0.453125 0.06789,-0.0063 0.140065,-0.0098 0.214844,-0.0098 0.276142,0 0.5,-0.223857 0.5,-0.5 0,-0.276142 -0.223858,-0.5 -0.5,-0.5 -0.02608,0 -0.05243,-5.65e-4 -0.07813,0 z m -1.710938,0.513672 c -0.113005,0.0066 -0.220424,0.05137 -0.304687,0.126953 -0.779101,0.70123 -1.132813,1.69336 -1.132813,1.69336 -0.09786,0.257796 0.03147,0.54615 0.289063,0.644531 0.257796,0.09785 0.546149,-0.03147 0.644531,-0.289063 0,0 0.339436,-0.831638 0.867187,-1.30664 0.204549,-0.184645 0.221146,-0.49998 0.03711,-0.705078 -0.101664,-0.112596 -0.248949,-0.172947 -0.400391,-0.164063 z" style="color:#000;fill:#fff;stroke-width:1;stroke-linecap:round;stroke-linejoin:round;stroke-dashoffset:.1;-inkscape-stroke:none"></path>
    </g>
  </g>
</svg>
